<svg id="svg" xmlns="http://www.w3.org/2000/svg" xmlns:xlink="http://www.w3.org/1999/xlink" width="400" height="507.3170731707317" viewBox="0, 0, 400,507.3170731707317"><g id="svgg"><path id="path0" d="M292.683 3.300 C 205.330 16.349,127.782 62.279,99.675 117.615 C 98.321 120.281,95.567 121.943,84.403 126.829 C 64.834 135.395,60.718 138.935,60.709 147.208 C 60.695 159.074,72.553 163.536,87.467 157.279 C 95.488 153.914,95.368 153.870,97.628 160.976 C 98.766 164.553,99.704 167.542,99.713 167.619 C 99.722 167.696,98.263 168.366,96.472 169.108 C 86.573 173.208,83.439 185.069,90.281 192.535 C 94.975 197.656,100.994 198.494,109.343 195.188 L 115.163 192.884 120.725 198.131 L 126.287 203.377 110.569 210.130 C 87.421 220.075,82.511 226.113,88.365 237.434 C 93.378 247.127,100.884 246.230,133.659 232.016 C 159.350 220.875,159.479 220.834,164.006 222.190 L 168.552 223.552 163.933 225.726 C 151.432 231.609,150.827 248.736,162.903 254.896 C 169.327 258.174,172.560 257.346,197.438 246.057 C 222.610 234.634,221.968 234.670,228.441 244.303 C 238.519 259.300,234.782 279.306,220.179 288.531 C 203.813 298.871,164.798 322.170,142.005 335.215 C 102.465 357.846,89.305 364.197,46.612 381.251 C 22.380 390.931,18.003 394.586,18.161 405.009 C 18.384 419.759,32.246 426.432,48.553 419.639 L 56.455 416.347 57.528 419.285 C 58.118 420.900,58.769 422.713,58.975 423.313 C 59.181 423.913,50.021 428.534,38.618 433.581 C 12.524 445.131,10.298 446.951,10.298 456.740 C 10.298 474.222,20.007 475.458,50.462 461.854 L 69.774 453.228 71.743 457.627 C 72.827 460.046,73.713 462.228,73.713 462.476 C 73.713 462.724,70.176 464.555,65.854 466.544 C 52.367 472.751,48.309 482.045,54.443 492.683 C 61.110 504.245,65.238 503.735,107.967 486.065 C 127.582 477.954,150.498 468.489,158.890 465.031 C 260.680 423.096,355.632 366.438,376.491 335.188 C 403.490 294.741,403.275 251.261,375.879 211.632 C 361.749 191.192,348.335 181.370,304.369 159.269 C 256.034 134.973,255.687 133.633,294.038 119.372 C 312.265 112.594,335.174 105.692,363.144 98.551 C 398.372 89.556,401.730 85.986,395.250 64.419 C 378.773 9.578,353.094 -5.724,292.683 3.300 " stroke-width="2" stroke="#000000" fill="#ffffff"></path></g></svg>